<?xml version="1.0" encoding="utf-8"?>
<!-- Generator: Adobe Illustrator 21.0.0, SVG Export Plug-In . SVG Version: 6.00 Build 0)  -->
<svg version="1.1" id="Layer_1" xmlns="http://www.w3.org/2000/svg" xmlns:xlink="http://www.w3.org/1999/xlink" x="0px" y="0px"
	 viewBox="0 0 330.6 330.6" style="enable-background:new 0 0 330.6 330.6;" xml:space="preserve">
<style type="text/css">
	.st0{clip-path:url(#SVGID_2_);}
	.st1{clip-path:url(#SVGID_12_);}
	.st2{clip-path:url(#SVGID_13_);}
	.st3{clip-path:url(#SVGID_14_);}
	.st4{clip-path:url(#SVGID_15_);}
	.st5{clip-path:url(#SVGID_16_);}
	.st6{clip-path:url(#SVGID_17_);}
	.st7{clip-path:url(#SVGID_18_);}
	.st8{clip-path:url(#SVGID_19_);}
	.st9{clip-path:url(#SVGID_20_);fill:url(#SVGID_21_);}
	.st10{clip-path:url(#SVGID_20_);}
	.st11{fill:#FFFFFF;}
	.st12{fill:#3F5E92;}
	.st13{fill:#3BA0EE;}
	.st14{clip-path:url(#SVGID_20_);fill:#FFFFFF;}
</style>
<g>
	<g>
		<defs>
			<path id="SVGID_1_" d="M271.8,327.9H58.8c-30.9,0-56.2-25.3-56.2-56.2V58.8C2.7,28,28,2.7,58.8,2.7h212.9
				c30.9,0,56.2,25.3,56.2,56.2v212.9C327.9,302.6,302.6,327.9,271.8,327.9z"/>
		</defs>
		<clipPath id="SVGID_2_">
			<use xlink:href="#SVGID_1_"  style="overflow:visible;"/>
		</clipPath>
		<g class="st0">
			<g>
				<g>
					<defs>
						<path id="SVGID_3_" d="M270.8,329.2H58.5c-31.4,0-57.1-25.7-57.1-57.1V59.8c0-31.4,25.7-57.1,57.1-57.1h212.3
							c31.4,0,57.1,25.7,57.1,57.1v212.3C327.9,303.5,302.2,329.2,270.8,329.2z"/>
					</defs>
					<defs>
						<path id="SVGID_4_" d="M270.8,329.2H58.5c-31.4,0-57.1-25.7-57.1-57.1V59.8c0-31.4,25.7-57.1,57.1-57.1h212.3
							c31.4,0,57.1,25.7,57.1,57.1v212.3C327.9,303.5,302.2,329.2,270.8,329.2z"/>
					</defs>
					<defs>
						<path id="SVGID_5_" d="M270.8,329.2H58.5c-31.4,0-57.1-25.7-57.1-57.1V59.8c0-31.4,25.7-57.1,57.1-57.1h212.3
							c31.4,0,57.1,25.7,57.1,57.1v212.3C327.9,303.5,302.2,329.2,270.8,329.2z"/>
					</defs>
					<defs>
						<path id="SVGID_6_" d="M270.8,329.2H58.5c-31.4,0-57.1-25.7-57.1-57.1V59.8c0-31.4,25.7-57.1,57.1-57.1h212.3
							c31.4,0,57.1,25.7,57.1,57.1v212.3C327.9,303.5,302.2,329.2,270.8,329.2z"/>
					</defs>
					<defs>
						<path id="SVGID_7_" d="M270.8,329.2H58.5c-31.4,0-57.1-25.7-57.1-57.1V59.8c0-31.4,25.7-57.1,57.1-57.1h212.3
							c31.4,0,57.1,25.7,57.1,57.1v212.3C327.9,303.5,302.2,329.2,270.8,329.2z"/>
					</defs>
					<defs>
						<path id="SVGID_8_" d="M270.8,329.2H58.5c-31.4,0-57.1-25.7-57.1-57.1V59.8c0-31.4,25.7-57.1,57.1-57.1h212.3
							c31.4,0,57.1,25.7,57.1,57.1v212.3C327.9,303.5,302.2,329.2,270.8,329.2z"/>
					</defs>
					<defs>
						<path id="SVGID_9_" d="M270.8,329.2H58.5c-31.4,0-57.1-25.7-57.1-57.1V59.8c0-31.4,25.7-57.1,57.1-57.1h212.3
							c31.4,0,57.1,25.7,57.1,57.1v212.3C327.9,303.5,302.2,329.2,270.8,329.2z"/>
					</defs>
					<defs>
						<path id="SVGID_10_" d="M270.8,329.2H58.5c-31.4,0-57.1-25.7-57.1-57.1V59.8c0-31.4,25.7-57.1,57.1-57.1h212.3
							c31.4,0,57.1,25.7,57.1,57.1v212.3C327.9,303.5,302.2,329.2,270.8,329.2z"/>
					</defs>
					<defs>
						<path id="SVGID_11_" d="M270.8,329.2H58.5c-31.4,0-57.1-25.7-57.1-57.1V59.8c0-31.4,25.7-57.1,57.1-57.1h212.3
							c31.4,0,57.1,25.7,57.1,57.1v212.3C327.9,303.5,302.2,329.2,270.8,329.2z"/>
					</defs>
					<clipPath id="SVGID_12_">
						<use xlink:href="#SVGID_3_"  style="overflow:visible;"/>
					</clipPath>
					<clipPath id="SVGID_13_" class="st1">
						<use xlink:href="#SVGID_4_"  style="overflow:visible;"/>
					</clipPath>
					<clipPath id="SVGID_14_" class="st2">
						<use xlink:href="#SVGID_5_"  style="overflow:visible;"/>
					</clipPath>
					<clipPath id="SVGID_15_" class="st3">
						<use xlink:href="#SVGID_6_"  style="overflow:visible;"/>
					</clipPath>
					<clipPath id="SVGID_16_" class="st4">
						<use xlink:href="#SVGID_7_"  style="overflow:visible;"/>
					</clipPath>
					<clipPath id="SVGID_17_" class="st5">
						<use xlink:href="#SVGID_8_"  style="overflow:visible;"/>
					</clipPath>
					<clipPath id="SVGID_18_" class="st6">
						<use xlink:href="#SVGID_9_"  style="overflow:visible;"/>
					</clipPath>
					<clipPath id="SVGID_19_" class="st7">
						<use xlink:href="#SVGID_10_"  style="overflow:visible;"/>
					</clipPath>
					<clipPath id="SVGID_20_" class="st8">
						<use xlink:href="#SVGID_11_"  style="overflow:visible;"/>
					</clipPath>
					
						<linearGradient id="SVGID_21_" gradientUnits="userSpaceOnUse" x1="162.6333" y1="329.3333" x2="162.6333" y2="-1.2667" gradientTransform="matrix(1 0 0 -1 0 332)">
						<stop  offset="0" style="stop-color:#3FB3FB"/>
						<stop  offset="1" style="stop-color:#007AFB"/>
					</linearGradient>
					<path class="st9" d="M270.8,333.3H54.4c-31.4,0-57.1-25.7-57.1-57.1V59.8C-2.7,28.4,23,2.7,54.4,2.7h216.4
						c31.4,0,57.1,25.7,57.1,57.1v216.4C327.9,307.6,302.2,333.3,270.8,333.3z"/>
					<g id="rTDjT5.tif" class="st10">
						<g>
							<path class="st11" d="M39.1,125.7c4.4-71.4,63.5-132,134.6-138.8c27.8-2.7,54,2.1,79.6,12.5c-2.6,13.5-2.7,27.2-1.7,40.8
								c-12.9-4.6-24.6-11.9-38.5-14.7c-8.4-1.6-9.8,1.5-10.6,7.8c-0.2,1.8-0.2,3.5-0.3,5.3c-3.1,6.7-3,14.2-4.8,21.2
								c-1.1,4.5-2.9,7.8-8,7.5c-4.7-0.2-6-3.5-7.1-7.5c-1.8-7-1.6-14.5-4.8-21.2c-0.4-3.2-0.8-6.4-1.3-9.6c-0.5-3.5-2.4-5-6.1-4.3
								c-47.4,9.1-84.5,45.1-93,94c-0.5,2.9-0.3,4.6,2.9,4.8c10.4,2,20.9,3.9,31.3,6c4.6,0.9,9,2.6,8.6,8.2
								c-0.3,4.9-4.1,6.6-8.6,7.3c-8.7,1.5-17.3,4.1-26.1,4.7c-8.2,0.6-8.2,4.6-6.7,10.5c12,47.2,41.3,76.8,88.9,88.3
								c7.5,1.8,9-0.7,9.9-7.2c1.3-9.3,3.4-18.5,5.1-27.8c0.8-4,3.1-6.4,7.2-6.4c4.1,0,6.4,2.5,7.2,6.4c1,5.2,2.1,10.4,3.1,15.6
								c4.4,23.1,4.5,23.5,27.2,15c39.8-14.8,64.1-43.5,73.9-84.8c1.5-6.2,0.1-9-6.9-9.6c-8.8-0.8-17.4-3.3-26.1-4.8
								c-4.5-0.8-8.3-2.5-8.6-7.3c-0.4-5.6,4-7.3,8.6-8.2c10.4-2,20.8-4,31.3-6c4.2-0.4,3-2.7,2.7-5.6c-1.4-13.6-8.4-25.3-12.5-38
								c13.6,4.1,25-2,36.6-7.5c8.7,16.6,13,34.5,14.4,53.1c-0.5,3.6-0.7,7.3,0.5,10.8c0,3.4-0.1,6.9-0.1,10.3
								c-3.9,44.5-22.4,81.1-57.4,109.6c-56.8,46.3-145.2,42.6-197.9-8.5c-28.1-27.3-43.7-60.3-47.2-99.2c-0.1-4-0.2-8.1-0.3-12.1
								C39.7,132.9,39.6,129.3,39.1,125.7z"/>
							<path class="st12" d="M259.9,62c-0.3-0.6-0.6-1.3-0.9-1.9C259.3,60.7,259.6,61.3,259.9,62z"/>
							<path class="st12" d="M259.1,60.2c-1.5,0.3-2.7,0.2-2-1.9C257.8,58.9,258.5,59.6,259.1,60.2z"/>
							<path class="st11" d="M152.2,140.9c0.8-27.2,14.5-40.4,43.1-41.6c17.4,4.3,28.1,15.4,33,32.4c-1.2,6-0.3,12.2-2.4,18.2
								c-5.4,14.9-18.6,24.9-34.4,25.5c-3.2,0.1-6.4-0.1-9.5,1.3c-14-7.2-25.9-16.2-30.4-32.3c0.2-1,0.3-2.1,0.5-3.1
								C152.1,141.2,152.2,140.9,152.2,140.9z M190,156.1c10.2,0,18.6-8.2,18.8-18.3c0.2-10.3-8.6-19.2-19-19.2s-19.1,9-18.8,19.3
								C171.4,148.1,179.8,156.1,190,156.1z"/>
							<path class="st11" d="M228.2,131.6c-4.9-17-15.7-28.1-33-32.4c16.8-9.2,33.5-18.4,50.3-27.6c3.4-1.9,6.8-2,9.7,1
								c2.7,2.7,2.6,5.8,0.9,8.9C246.7,98.1,238.9,115.6,228.2,131.6z"/>
							<path class="st11" d="M151.6,144.3c4.4,16.1,16.4,25.1,30.4,32.3c-15.4,11-32.7,18.5-49.3,27.4c-2.9,1.6-5.8,0.7-8.1-1.6
								c-2.1-2.1-2.8-4.9-1.4-7.4C132.7,178.1,140.1,160.1,151.6,144.3z"/>
							<path class="st13" d="M152.2,140.9l-0.1,0.3l-0.4-0.3H152.2z"/>
						</g>
					</g>
					<polyline class="st14" points="114.8,130.5 65.3,120.4 76.6,156.4 116.2,143.8 81.6,135.4 					"/>
					<path class="st14" d="M44.5,94.7c0,0-8.5,32-6,51.2s14.8,21.2,14.8,21.2"/>
					<path class="st14" d="M213.1,25.6c0,0,65.8,13.1,86.8,81s29.7-27.5,29.7-27.5l-3.1-6.5l1.5-18.7l-3.1-36.5L314.3,2.7l-49-5.8
						l-39.1,3"/>
					<polyline class="st14" points="197.7,59.3 209.5,8.1 171.8,18.9 183.8,60.4 193.5,24.6 					"/>
					<polyline class="st14" points="183.6,216 171.8,267.2 209.5,256.4 197.4,214.9 187.8,250.7 					"/>
					<polyline class="st14" points="265.7,144.5 318,160.2 309.4,120.4 265.5,130.1 302,142.5 					"/>
					<path class="st14" d="M325.1,85.3L325.1,85.3c-3.9,0-7.1-3.2-7.1-7.1V53c0-3.9,3.2-7.1,7.1-7.1l0,0c3.9,0,7.1,3.2,7.1,7.1v25.2
						C332.2,82.1,329,85.3,325.1,85.3z"/>
				</g>
			</g>
		</g>
	</g>
</g>
</svg>
